<?xml version="1.0" encoding="utf-8"?>
<!-- Generator: Adobe Illustrator 21.0.1, SVG Export Plug-In . SVG Version: 6.00 Build 0)  -->
<svg version="1.1" id="Ebene_1" xmlns="http://www.w3.org/2000/svg" xmlns:xlink="http://www.w3.org/1999/xlink" x="0px" y="0px"
	 viewBox="0 0 1564 1511" style="enable-background:new 0 0 1564 1511;" xml:space="preserve">
<style type="text/css">
	.st0{fill:none;stroke:#000000;stroke-miterlimit:10;}
	.st1{fill:#FFFFFF;}
	.st2{font-family:'ArialMT';}
	.st3{font-size:13px;}
	.st4{font-family:'Arial-BoldMT';}
	.st5{opacity:0.2;fill:#C0C0C0;enable-background:new    ;}
	.st6{fill:none;stroke:#000000;stroke-miterlimit:10;stroke-dasharray:3;}
</style>
<g>
	<g transform="translate(10,10) scale(1,1)">
		<path class="st0" d="M-0.4-2h1544v1280H-0.4V-2"/>
	</g>
	<g transform="translate(10,10) scale(1,1)">
		<path class="st1" d="M-0.4-2v22h189l11-11V-2H-0.4"/>
	</g>
	<g transform="translate(10,10) scale(1,1)">
		<path class="st0" d="M-0.4-2v22h189l11-11V-2H-0.4L-0.4-2"/>
	</g>
	<g transform="translate(10,10) scale(1,1)">
		<g>
			<path class="st0" d="M-0.4-2"/>
			<text transform="matrix(1 0 0 1 70.5813 15.5052)" class="st2 st3">SequenceDiagram1</text>
		</g>
	</g>
	<g transform="translate(10,10) scale(1,1)">
		<g>
			<path d="M-0.4-2"/>
			<text transform="matrix(1 0 0 1 4.5813 15.5052)" class="st4 st3">interaction</text>
		</g>
	</g>
	<g transform="translate(10,10) scale(1,1)">
		<rect x="190.6" y="45" class="st5" width="72" height="39"/>
	</g>
	<g transform="translate(10,10) scale(1,1)">
		<rect x="183.6" y="38" class="st1" width="72" height="39"/>
	</g>
	<g transform="translate(10,10) scale(1,1)">
		<path class="st0" d="M183.6,38h72v39h-72V38z"/>
	</g>
	<g transform="translate(10,10) scale(1,1)">
		<g>
			<path class="st0" d="M-0.4-2"/>
			<text transform="matrix(1 0 0 1 199.0813 57.5052)" class="st4 st3">Athena</text>
		</g>
	</g>
	<g transform="translate(10,10) scale(1,1)">
		<path class="st6" d="M221.1,78v926"/>
	</g>
	<g transform="translate(10,10) scale(1,1)">
		<rect x="1182.6" y="45" class="st5" width="72" height="39"/>
	</g>
	<g transform="translate(10,10) scale(1,1)">
		<rect x="1175.6" y="38" class="st1" width="72" height="39"/>
	</g>
	<g transform="translate(10,10) scale(1,1)">
		<path class="st0" d="M1175.6,38h72v39h-72V38z"/>
	</g>
	<g transform="translate(10,10) scale(1,1)">
		<g>
			<path class="st0" d="M-0.4-2"/>
			<text transform="matrix(1 0 0 1 1189.5813 57.5052)" class="st4 st3">Client 1</text>
		</g>
	</g>
	<g transform="translate(10,10) scale(1,1)">
		<path class="st6" d="M1213.1,78v1118"/>
	</g>
	<g transform="translate(10,10) scale(1,1)">
		<rect x="406.6" y="45" class="st5" width="128" height="39"/>
	</g>
	<g transform="translate(10,10) scale(1,1)">
		<rect x="399.6" y="38" class="st1" width="128" height="39"/>
	</g>
	<g transform="translate(10,10) scale(1,1)">
		<path class="st0" d="M399.6,38h128v39h-128V38z"/>
	</g>
	<g transform="translate(10,10) scale(1,1)">
		<g>
			<path class="st0" d="M-0.4-2"/>
			<text transform="matrix(1 0 0 1 412.5813 57.5052)" class="st4 st3">Kinecting Service</text>
		</g>
	</g>
	<g transform="translate(10,10) scale(1,1)">
		<path class="st6" d="M465.1,78v926"/>
	</g>
	<g transform="translate(10,10) scale(1,1)">
		<rect x="630.6" y="45" class="st5" width="102" height="39"/>
	</g>
	<g transform="translate(10,10) scale(1,1)">
		<rect x="623.6" y="38" class="st1" width="102" height="39"/>
	</g>
	<g transform="translate(10,10) scale(1,1)">
		<path class="st0" d="M623.6,38h102v39h-102V38z"/>
	</g>
	<g transform="translate(10,10) scale(1,1)">
		<g>
			<path class="st0" d="M-0.4-2"/>
			<text transform="matrix(1 0 0 1 654.0813 57.5052)" class="st4 st3">Charon</text>
		</g>
	</g>
	<g transform="translate(10,10) scale(1,1)">
		<path class="st6" d="M676.1,78v656"/>
	</g>
	<g transform="translate(10,10) scale(1,1)">
		<rect x="822.6" y="729" class="st5" width="109" height="39"/>
	</g>
	<g transform="translate(10,10) scale(1,1)">
		<rect x="815.6" y="722" class="st1" width="109" height="39"/>
	</g>
	<g transform="translate(10,10) scale(1,1)">
		<path class="st0" d="M815.6,722h109v39h-109V722z"/>
	</g>
	<g transform="translate(10,10) scale(1,1)">
		<g>
			<path class="st0" d="M-0.4-2"/>
			<text transform="matrix(1 0 0 1 827.0813 741.5052)" class="st4 st3">KinectStream0</text>
		</g>
	</g>
	<g transform="translate(10,10) scale(1,1)">
		<path class="st6" d="M871.1,762v323"/>
	</g>
	<g transform="translate(10,10) scale(1,1)">
		<path class="st1" d="M703.6,598h234l10,10v39h-244V598"/>
	</g>
	<g transform="translate(10,10) scale(1,1)">
		<path class="st0" d="M703.6,598h234l10,10v39h-244V598L703.6,598"/>
	</g>
	<g transform="translate(10,10) scale(1,1)">
		<path class="st0" d="M937.6,598v10h10L937.6,598"/>
	</g>
	<g transform="translate(10,10) scale(1,1)">
		<g>
			<path class="st0" d="M-0.4-2"/>
			<text transform="matrix(1 0 0 1 708.5813 616.0052)" class="st2 st3">When recording is ready, rename old</text>
			<text transform="matrix(1 0 0 1 708.5813 629.0052)" class="st2 st3">stream to id_count+1 and current</text>
			<text transform="matrix(1 0 0 1 708.5813 642.0052)" class="st2 st3">recording to recording 0</text>
		</g>
	</g>
	<g transform="translate(10,10) scale(1,1)">
		<path class="st6" d="M572.6,654l130-16"/>
	</g>
	<g transform="translate(10,10) scale(1,1)">
		<rect x="30.6" y="97" class="st5" width="102" height="39"/>
	</g>
	<g transform="translate(10,10) scale(1,1)">
		<rect x="23.6" y="90" class="st1" width="102" height="39"/>
	</g>
	<g transform="translate(10,10) scale(1,1)">
		<path class="st0" d="M23.6,90h102v39h-102V90z"/>
	</g>
	<g transform="translate(10,10) scale(1,1)">
		<g>
			<path class="st0" d="M-0.4-2"/>
			<text transform="matrix(1 0 0 1 35.0813 109.5052)" class="st4 st3">KinectStream</text>
		</g>
	</g>
	<g transform="translate(10,10) scale(1,1)">
		<path class="st6" d="M76.1,130v250"/>
	</g>
	<g transform="translate(10,10) scale(1,1)">
		<path class="st1" d="M255.6,326h165l10,10v13h-175V326"/>
	</g>
	<g transform="translate(10,10) scale(1,1)">
		<path class="st0" d="M255.6,326h165l10,10v13h-175V326L255.6,326"/>
	</g>
	<g transform="translate(10,10) scale(1,1)">
		<path class="st0" d="M420.6,326v10h10L420.6,326"/>
	</g>
	<g transform="translate(10,10) scale(1,1)">
		<g>
			<path class="st0" d="M-0.4-2"/>
			<text transform="matrix(1 0 0 1 260.5813 344.0052)" class="st2 st3">if (timesPlayed % 5) == 0</text>
		</g>
	</g>
	<g transform="translate(10,10) scale(1,1)">
		<path class="st6" d="M345.6,318l-1,7"/>
	</g>
	<g transform="translate(10,10) scale(1,1)">
		<rect x="1022.6" y="793" class="st5" width="109" height="39"/>
	</g>
	<g transform="translate(10,10) scale(1,1)">
		<rect x="1015.6" y="786" class="st1" width="109" height="39"/>
	</g>
	<g transform="translate(10,10) scale(1,1)">
		<path class="st0" d="M1015.6,786h109v39h-109V786z"/>
	</g>
	<g transform="translate(10,10) scale(1,1)">
		<g>
			<path class="st0" d="M-0.4-2"/>
			<text transform="matrix(1 0 0 1 1027.0813 805.5052)" class="st4 st3">KinectStream1</text>
		</g>
	</g>
	<g transform="translate(10,10) scale(1,1)">
		<path class="st6" d="M1071.1,825v397"/>
	</g>
	<g transform="translate(10,10) scale(1,1)">
		<rect x="1310.6" y="45" class="st5" width="72" height="39"/>
	</g>
	<g transform="translate(10,10) scale(1,1)">
		<rect x="1303.6" y="38" class="st1" width="72" height="39"/>
	</g>
	<g transform="translate(10,10) scale(1,1)">
		<path class="st0" d="M1303.6,38h72v39h-72V38z"/>
	</g>
	<g transform="translate(10,10) scale(1,1)">
		<g>
			<path class="st0" d="M-0.4-2"/>
			<text transform="matrix(1 0 0 1 1317.5813 57.5052)" class="st4 st3">Client 2</text>
		</g>
	</g>
	<g transform="translate(10,10) scale(1,1)">
		<path class="st6" d="M1341.1,78v1144"/>
	</g>
	<g transform="translate(10,10) scale(1,1)">
		<path class="st0" d="M220.6,87h237"/>
	</g>
	<g transform="translate(10,10) scale(1,1)">
		<path d="M447.4,91.2l10.2-4.2l-10.2-4.2"/>
	</g>
	<g transform="translate(10,10) scale(1,1)">
		<path class="st0" d="M447.4,91.2l10.2-4.2l-10.2-4.2V91.2"/>
	</g>
	<g transform="translate(10,10) scale(1,1)">
		<g>
			<path class="st0" d="M-0.4-2"/>
			<text transform="matrix(1 0 0 1 288.0813 83.5052)" class="st2 st3">1 : playPoseLoop</text>
		</g>
	</g>
	<g transform="translate(10,10) scale(1,1)">
		<rect x="457.6" y="87" class="st1" width="13" height="903"/>
	</g>
	<g transform="translate(10,10) scale(1,1)">
		<path class="st0" d="M457.6,87h13v903h-13V87z"/>
	</g>
	<g transform="translate(10,10) scale(1,1)">
		<path class="st0" d="M1212.6,102h30v20h-24"/>
	</g>
	<g transform="translate(10,10) scale(1,1)">
		<path d="M1228.7,117.8l-10.2,4.2l10.2,4.2"/>
	</g>
	<g transform="translate(10,10) scale(1,1)">
		<path class="st0" d="M1228.7,117.8l-10.2,4.2l10.2,4.2V117.8"/>
	</g>
	<g transform="translate(10,10) scale(1,1)">
		<g>
			<path class="st0" d="M-0.4-2"/>
			<text transform="matrix(1 0 0 1 1167.0813 117.5052)" class="st2 st3">2 : reconstruction Application</text>
		</g>
	</g>
	<g transform="translate(10,10) scale(1,1)">
		<rect x="1205.6" y="122" class="st1" width="13" height="1060"/>
	</g>
	<g transform="translate(10,10) scale(1,1)">
		<path class="st0" d="M1205.6,122h13v1060h-13V122z"/>
	</g>
	<g transform="translate(10,10) scale(1,1)">
		<path class="st6" d="M457.6,110h-332"/>
	</g>
	<g transform="translate(10,10) scale(1,1)">
		<path class="st0" d="M136.7,105.8l-10.2,4.2l10.2,4.2"/>
	</g>
	<g transform="translate(10,10) scale(1,1)">
		<g>
			<path class="st0" d="M-0.4-2"/>
			<text transform="matrix(1 0 0 1 214.0813 126.5052)" class="st2 st3">3 : startRecording</text>
		</g>
	</g>
	<g transform="translate(10,10) scale(1,1)">
		<g>
			<path d="M-0.4-2"/>
			<text transform="matrix(1 0 0 1 240.0813 141.5052)" class="st2 st3">«create»</text>
		</g>
	</g>
	<g transform="translate(10,10) scale(1,1)">
		<path class="st0" d="M1340.6,118h30v20h-24"/>
	</g>
	<g transform="translate(10,10) scale(1,1)">
		<path d="M1356.7,133.8l-10.2,4.2l10.2,4.2"/>
	</g>
	<g transform="translate(10,10) scale(1,1)">
		<path class="st0" d="M1356.7,133.8l-10.2,4.2l10.2,4.2V133.8"/>
	</g>
	<g transform="translate(10,10) scale(1,1)">
		<g>
			<path class="st0" d="M-0.4-2"/>
			<text transform="matrix(1 0 0 1 1295.0813 133.5052)" class="st2 st3">4 : reconstruction Application</text>
		</g>
	</g>
	<g transform="translate(10,10) scale(1,1)">
		<rect x="1333.6" y="138" class="st1" width="13" height="1068"/>
	</g>
	<g transform="translate(10,10) scale(1,1)">
		<path class="st0" d="M1333.6,138h13v1068h-13V138z"/>
	</g>
	<g transform="translate(10,10) scale(1,1)">
		<path class="st0" d="M220.6,198h30v20h-24"/>
	</g>
	<g transform="translate(10,10) scale(1,1)">
		<path d="M236.7,213.8l-10.2,4.2l10.2,4.2"/>
	</g>
	<g transform="translate(10,10) scale(1,1)">
		<path class="st0" d="M236.7,213.8l-10.2,4.2l10.2,4.2V213.8"/>
	</g>
	<g transform="translate(10,10) scale(1,1)">
		<g>
			<path class="st0" d="M-0.4-2"/>
			<text transform="matrix(1 0 0 1 210.0813 213.5052)" class="st2 st3">5 : avangoPlayer</text>
		</g>
	</g>
	<g transform="translate(10,10) scale(1,1)">
		<rect x="213.6" y="218" class="st1" width="13" height="140"/>
	</g>
	<g transform="translate(10,10) scale(1,1)">
		<path class="st0" d="M213.6,218h13v140h-13V218z"/>
	</g>
	<g transform="translate(10,10) scale(1,1)">
		<path class="st6" d="M75.6,230h138"/>
	</g>
	<g transform="translate(10,10) scale(1,1)">
		<path class="st0" d="M203.4,234.2l10.2-4.2l-10.2-4.2"/>
	</g>
	<g transform="translate(10,10) scale(1,1)">
		<g>
			<path class="st0" d="M-0.4-2"/>
			<text transform="matrix(1 0 0 1 106.0813 226.5052)" class="st2 st3">6 : videoData</text>
		</g>
	</g>
	<g transform="translate(10,10) scale(1,1)">
		<path class="st6" d="M457.6,254h-231"/>
	</g>
	<g transform="translate(10,10) scale(1,1)">
		<path class="st0" d="M236.7,249.8l-10.2,4.2l10.2,4.2"/>
	</g>
	<g transform="translate(10,10) scale(1,1)">
		<g>
			<path class="st0" d="M-0.4-2"/>
			<text transform="matrix(1 0 0 1 294.5813 270.5052)" class="st2 st3">7 : timesPlayed</text>
		</g>
	</g>
	<g transform="translate(10,10) scale(1,1)">
		<path class="st0" d="M226.6,318h238"/>
	</g>
	<g transform="translate(10,10) scale(1,1)">
		<path d="M454.4,322.2l10.2-4.2l-10.2-4.2"/>
	</g>
	<g transform="translate(10,10) scale(1,1)">
		<path class="st0" d="M454.4,322.2l10.2-4.2l-10.2-4.2V322.2"/>
	</g>
	<g transform="translate(10,10) scale(1,1)">
		<g>
			<path class="st0" d="M-0.4-2"/>
			<text transform="matrix(1 0 0 1 318.0813 314.5052)" class="st2 st3">8 : record</text>
		</g>
	</g>
	<g transform="translate(10,10) scale(1,1)">
		<rect x="464.6" y="318" class="st1" width="13" height="600"/>
	</g>
	<g transform="translate(10,10) scale(1,1)">
		<path class="st0" d="M464.6,318h13v600h-13V318z"/>
	</g>
	<g transform="translate(10,10) scale(1,1)">
		<path class="st0" d="M477.6,350h191"/>
	</g>
	<g transform="translate(10,10) scale(1,1)">
		<path d="M658.4,354.2l10.2-4.2l-10.2-4.2"/>
	</g>
	<g transform="translate(10,10) scale(1,1)">
		<path class="st0" d="M658.4,354.2l10.2-4.2l-10.2-4.2V354.2"/>
	</g>
	<g transform="translate(10,10) scale(1,1)">
		<g>
			<path class="st0" d="M-0.4-2"/>
			<text transform="matrix(1 0 0 1 545.0814 346.5052)" class="st2 st3">9 : record</text>
		</g>
	</g>
	<g transform="translate(10,10) scale(1,1)">
		<rect x="668.6" y="350" class="st1" width="13" height="131"/>
	</g>
	<g transform="translate(10,10) scale(1,1)">
		<path class="st0" d="M668.6,350h13v131h-13V350z"/>
	</g>
	<g transform="translate(10,10) scale(1,1)">
		<path class="st6" d="M668.6,454h-191"/>
	</g>
	<g transform="translate(10,10) scale(1,1)">
		<path class="st0" d="M487.7,449.8l-10.2,4.2l10.2,4.2"/>
	</g>
	<g transform="translate(10,10) scale(1,1)">
		<g>
			<path class="st0" d="M-0.4-2"/>
			<text transform="matrix(1 0 0 1 516.0814 470.5052)" class="st2 st3">10 : recording done</text>
		</g>
	</g>
	<g transform="translate(10,10) scale(1,1)">
		<path class="st0" d="M477.6,550h191"/>
	</g>
	<g transform="translate(10,10) scale(1,1)">
		<path d="M658.4,554.2l10.2-4.2l-10.2-4.2"/>
	</g>
	<g transform="translate(10,10) scale(1,1)">
		<path class="st0" d="M658.4,554.2l10.2-4.2l-10.2-4.2V554.2"/>
	</g>
	<g transform="translate(10,10) scale(1,1)">
		<g>
			<path class="st0" d="M-0.4-2"/>
			<text transform="matrix(1 0 0 1 478.0813 546.5052)" class="st2 st3">11 : convertToAvangoPointcloud</text>
		</g>
	</g>
	<g transform="translate(10,10) scale(1,1)">
		<rect x="668.6" y="550" class="st1" width="13" height="48"/>
	</g>
	<g transform="translate(10,10) scale(1,1)">
		<path class="st0" d="M668.6,550h13v48h-13V550z"/>
	</g>
	<g transform="translate(10,10) scale(1,1)">
		<path class="st6" d="M668.6,590h-191"/>
	</g>
	<g transform="translate(10,10) scale(1,1)">
		<path class="st0" d="M487.7,585.8l-10.2,4.2l10.2,4.2"/>
	</g>
	<g transform="translate(10,10) scale(1,1)">
		<g>
			<path class="st0" d="M-0.4-2"/>
			<text transform="matrix(1 0 0 1 511.0813 606.5052)" class="st2 st3">12 : conversion done</text>
		</g>
	</g>
	<g transform="translate(10,10) scale(1,1)">
		<path class="st0" d="M477.6,654h191"/>
	</g>
	<g transform="translate(10,10) scale(1,1)">
		<path d="M658.4,658.2l10.2-4.2l-10.2-4.2"/>
	</g>
	<g transform="translate(10,10) scale(1,1)">
		<path class="st0" d="M658.4,658.2l10.2-4.2l-10.2-4.2V658.2"/>
	</g>
	<g transform="translate(10,10) scale(1,1)">
		<g>
			<path class="st0" d="M-0.4-2"/>
			<text transform="matrix(1 0 0 1 501.0813 650.5052)" class="st2 st3">13 : renameStreamname</text>
		</g>
	</g>
	<g transform="translate(10,10) scale(1,1)">
		<rect x="668.6" y="654" class="st1" width="13" height="46"/>
	</g>
	<g transform="translate(10,10) scale(1,1)">
		<path class="st0" d="M668.6,654h13v46h-13V654z"/>
	</g>
	<g transform="translate(10,10) scale(1,1)">
		<path class="st6" d="M477.6,742h338"/>
	</g>
	<g transform="translate(10,10) scale(1,1)">
		<path class="st0" d="M805.4,746.2l10.2-4.2l-10.2-4.2"/>
	</g>
	<g transform="translate(10,10) scale(1,1)">
		<g>
			<path class="st0" d="M-0.4-2"/>
			<text transform="matrix(1 0 0 1 569.0814 738.5052)" class="st2 st3">14 : startPointcloudStream</text>
		</g>
	</g>
	<g transform="translate(10,10) scale(1,1)">
		<g>
			<path d="M-0.4-2"/>
			<text transform="matrix(1 0 0 1 621.0813 723.5052)" class="st2 st3">«create»</text>
		</g>
	</g>
	<g transform="translate(10,10) scale(1,1)">
		<path class="st6" d="M477.6,806h538"/>
	</g>
	<g transform="translate(10,10) scale(1,1)">
		<path class="st0" d="M1005.4,810.2l10.2-4.2l-10.2-4.2"/>
	</g>
	<g transform="translate(10,10) scale(1,1)">
		<g>
			<path class="st0" d="M-0.4-2"/>
			<text transform="matrix(1 0 0 1 669.0813 802.5052)" class="st2 st3">15 : startPointcloudStream</text>
		</g>
	</g>
	<g transform="translate(10,10) scale(1,1)">
		<g>
			<path d="M-0.4-2"/>
			<text transform="matrix(1 0 0 1 721.0813 787.5052)" class="st2 st3">«create»</text>
		</g>
	</g>
	<g transform="translate(10,10) scale(1,1)">
		<path class="st6" d="M870.6,862h335"/>
	</g>
	<g transform="translate(10,10) scale(1,1)">
		<path class="st0" d="M1195.4,866.2l10.2-4.2l-10.2-4.2"/>
	</g>
	<g transform="translate(10,10) scale(1,1)">
		<g>
			<path class="st0" d="M-0.4-2"/>
			<text transform="matrix(1 0 0 1 995.0814 858.5052)" class="st2 st3">16 : videoData</text>
		</g>
	</g>
	<g transform="translate(10,10) scale(1,1)">
		<path class="st6" d="M1070.6,911h263"/>
	</g>
	<g transform="translate(10,10) scale(1,1)">
		<path class="st0" d="M1323.4,915.2l10.2-4.2l-10.2-4.2"/>
	</g>
	<g transform="translate(10,10) scale(1,1)">
		<g>
			<path class="st0" d="M-0.4-2"/>
			<text transform="matrix(1 0 0 1 1159.0813 907.5052)" class="st2 st3">17 : videoData</text>
		</g>
	</g>
</g>
</svg>
